<svg width="32" height="32" viewBox="0 0 32 32" xmlns="http://www.w3.org/2000/svg"><title>DAE87E15-8839-4E0E-98B4-BFC0AE58160C</title><g fill="none" fill-rule="evenodd"><path d="M0 0h32v32H0z"/><path d="M18.202 18.003l4.832 4.831c.11.11.248.166.4.166a.567.567 0 0 0 .4-.966l-4.831-4.832a6.216 6.216 0 0 0 1.45-3.976A6.227 6.227 0 0 0 14.225 7C10.802 7 8 9.802 8 13.226c0 3.438 2.802 6.226 6.226 6.226 1.519 0 2.9-.538 3.976-1.45zm-3.976-9.871a5.1 5.1 0 0 1 5.094 5.094 5.09 5.09 0 0 1-5.094 5.094 5.1 5.1 0 0 1-5.094-5.094 5.108 5.108 0 0 1 5.094-5.094z" fill="#A1A4A8"/></g></svg>