<svg width="30" height="30" viewBox="0 0 30 30" xmlns="http://www.w3.org/2000/svg"><title>ABA061B6-BFA7-45DF-BBA5-7597B14DC7E5</title><g fill="none" fill-rule="evenodd"><path d="M19.129 20.63l9.06 9.06c.206.206.465.31.75.31a1.062 1.062 0 0 0 .75-1.812l-9.06-9.06a11.655 11.655 0 0 0 2.719-7.454C23.348 5.229 18.119 0 11.674 0 5.254 0 0 5.255 0 11.674c0 6.445 5.255 11.674 11.674 11.674 2.847 0 5.436-1.01 7.455-2.718zM11.674 2.123c5.28 0 9.551 4.296 9.551 9.55 0 5.281-4.27 9.552-9.551 9.552-5.28 0-9.551-4.297-9.551-9.551 0-5.255 4.296-9.551 9.55-9.551z" fill="#3D4347"/><path d="M0 0h30v30H0z"/></g></svg>