<svg width="70" height="70" viewBox="0 0 70 70" xmlns="http://www.w3.org/2000/svg" xmlns:xlink="http://www.w3.org/1999/xlink"><title>0516F5B2-7259-4932-93E0-1AF27EBFB88D</title><defs><path id="a" d="M0 70h70V0H0z"/></defs><g fill="none" fill-rule="evenodd"><mask id="b" fill="#fff"><use xlink:href="#a"/></mask><path d="M35 70C15.669 70 0 54.33 0 35S15.669 0 35 0c19.33 0 35 15.67 35 35S54.33 70 35 70z" fill="#F1645D" mask="url(#b)"/><path d="M27.683 50.207c1.675 1.685 4.016 2.694 7.07 2.694 3.055 0 5.396-1.01 7.072-2.694a8.332 8.332 0 0 0 1.5-2.015c9.27 1.24 12.209 3.11 12.716 5.513.155.736.393 1.915.692 3.42l.028.141a1207.572 1207.572 0 0 1 .793 4.037l.074.379a1 1 0 1 0 1.963-.382l-.074-.38a1356.652 1356.652 0 0 0-.794-4.043l-.028-.14c-.3-1.514-.54-2.7-.698-3.445-.735-3.485-4.557-5.848-15.166-7.18a1 1 0 0 0-1.074.677c-.031.094-.119.3-.274.58a6.462 6.462 0 0 1-1.076 1.428C39.1 50.11 37.267 50.9 34.753 50.9c-2.512 0-4.346-.79-5.652-2.104a6.462 6.462 0 0 1-1.076-1.428 3.965 3.965 0 0 1-.274-.58 1 1 0 0 0-1.074-.678c-10.546 1.325-14.39 3.725-15.165 7.168-.163.72-.395 1.85-.68 3.288l-.063.315a571.822 571.822 0 0 0-.782 4.043l-.073.38a1 1 0 1 0 1.966.372l.071-.378a650.252 650.252 0 0 1 .78-4.03l.062-.312c.283-1.424.512-2.54.67-3.238.538-2.388 3.503-4.292 12.72-5.527.317.61.804 1.315 1.5 2.015zM21.436 43.195l1.59-18.384c.738-6.184 5.679-10.277 11.728-10.277 6.025 0 10.989 4.125 11.73 10.31l1.586 18.35a1 1 0 1 0 1.993-.173l-1.59-18.383c-.868-7.25-6.708-12.104-13.719-12.104-7.034 0-12.853 4.82-13.717 12.072l-1.594 18.417a1 1 0 1 0 1.993.172z" fill="#FFF" fill-rule="nonzero" mask="url(#b)"/><path d="M29.431 27.172c1.958-.187 3.918-.525 5.757-1.053 1.88-.54 3.53-1.25 4.892-2.163a1 1 0 1 0-1.114-1.661c-1.17.784-2.636 1.416-4.33 1.902-1.709.49-3.551.808-5.395.984-.647.062-1.247.102-1.784.124-.318.013-.543.017-.656.017a1 1 0 0 0-1 1c0 8.702 3.582 15.388 8.953 15.388 5.37 0 8.952-6.687 8.952-15.388a1 1 0 0 0-2 0c0 7.743-3.024 13.388-6.952 13.388-3.763 0-6.696-5.178-6.937-12.42a35.637 35.637 0 0 0 1.614-.118z" fill="#FFF" fill-rule="nonzero" mask="url(#b)"/></g></svg>