<svg width="36" height="36" viewBox="0 0 36 36" xmlns="http://www.w3.org/2000/svg"><title>B3E5047B-8E4D-4202-A8A5-EEBED75CB3EA</title><g fill="none" fill-rule="evenodd"><path d="M8.018 25.423c0 .016 0 .032.018.064 0 .017.018.049.018.065s.019.032.019.064c.018.016.018.032.036.064.018.016.018.032.036.048s.036.032.036.048l.055.048.018.016s.018 0 .018.016c.054.048.127.08.2.096.018 0 .018 0 .036.016.072.016.145.032.217.032h19.568c.072 0 .145-.016.217-.032.018 0 .018 0 .037-.016.072-.032.145-.064.2-.096 0 0 .017 0 .017-.016l.018-.016.055-.048c.018-.016.036-.032.036-.048.018-.016.018-.032.036-.048s.018-.032.037-.064c.018-.016.018-.032.018-.064 0-.016.018-.048.018-.065 0-.016.018-.032.018-.064V10.657c0-.369-.326-.657-.744-.657H8.744c-.418 0-.744.288-.744.657v14.702c.018.016.018.032.018.064zm2.321-.752l5.495-5.798 2.285 1.41c.127.08.272.111.417.111.145 0 .29-.032.417-.112l2.285-1.41 5.495 5.799H10.34zm17.246-1.153l-5.132-5.398 5.114-3.155v8.553h.018zM9.505 11.313h18.08v2.066l-9.03 5.558-9.05-5.558v-2.066zm0 3.652l5.114 3.155-5.114 5.398v-8.553z" fill="#FFF"/><path d="M0 0h36v36H0z"/></g></svg>