<svg width="124" height="32" viewBox="0 0 124 32" xmlns="http://www.w3.org/2000/svg" xmlns:xlink="http://www.w3.org/1999/xlink"><title>6186AFD4-C6EE-4E53-851C-F26606E0D0E2</title><defs><path id="a" d="M123.755 24.597V.267h-7.47v24.33h7.47z"/></defs><g fill="none" fill-rule="evenodd"><g><path d="M0 2.726V.266h5.08v12.398c1.36-1.462 3.053-2.659 5.078-2.659 1.628 0 2.855.566 3.585 1.53.63.83.963 1.96.963 3.29v7.379h2.224v2.393H9.726v-2.393h2.125v-6.747c0-.932-.199-1.563-.564-2.028-.431-.532-1.095-.798-1.959-.798-1.56 0-3.053.931-4.249 2.16v7.413h2.125v2.393H0v-2.393h2.224V2.726H0zM29.594 17.45c0-2.925-1.858-5.018-4.514-5.018-2.69 0-4.548 2.093-4.548 5.018s1.858 4.987 4.548 4.987c2.656 0 4.514-2.062 4.514-4.987m-11.984 0c0-4.021 2.922-7.445 7.47-7.445 4.547 0 7.47 3.391 7.47 7.445 0 3.989-2.956 7.413-7.47 7.413-4.582 0-7.47-3.39-7.47-7.413M46.7 17.417c0-3.024-1.892-4.918-4.382-4.918-1.626 0-2.954.764-4.017 1.827v6.681c1.029.764 2.324 1.363 3.951 1.363 2.423 0 4.448-1.861 4.448-4.953m-8.664 5.75l-.732 1.463h-1.858V2.726h-2.258V.266h5.113v11.767c1.128-1.13 2.49-2.028 4.582-2.028 3.751 0 6.772 3.025 6.772 7.412 0 4.122-2.988 7.446-7.07 7.446-1.827 0-3.321-.665-4.549-1.695M63.803 17.417c0-3.024-1.892-4.918-4.381-4.918-1.627 0-2.955.764-4.017 1.827v6.681c1.029.764 2.324 1.363 3.95 1.363 2.424 0 4.448-1.861 4.448-4.953m-8.664 5.75l-.73 1.463h-1.86V2.726h-2.257V.266h5.113v11.767c1.128-1.13 2.49-2.028 4.58-2.028 3.752 0 6.774 3.025 6.774 7.412 0 4.122-2.988 7.446-7.072 7.446-1.827 0-3.32-.665-4.548-1.695M71.155 31.212c-1.593 0-2.721-.898-2.721-2.028 0-1.03.696-1.63 1.56-1.63.83 0 1.36.6 1.56 1.198.465-.167.93-.532 1.461-1.297.265-.432.564-.964.896-1.628l.963-1.995-5.278-11.101h-1.86v-2.46h6.972v2.36h-2.192s3.752 8.51 3.719 8.51l3.785-8.51H77.73v-2.36h6.905v2.46h-1.859l-6.74 14.392c-.364.732-.73 1.363-1.128 1.928-1.062 1.396-2.291 2.16-3.752 2.16M93.568 2.526c-.365.1-.698.333-.962.632-.466.631-.73 1.529-.73 2.925v4.188h3.718v2.46h-3.719v9.473h2.79v2.393h-7.836v-2.393h2.224V12.73h-2.49v-2.46h2.49V6.615c0-2.427.432-4.022 1.66-5.219C91.61.5 92.772 0 94.266 0c1.66 0 2.855.831 2.855 2.127 0 1.098-.762 1.762-1.66 1.762-.996 0-1.593-.598-1.892-1.363M100.54 22.968c-.432-.797-.665-1.761-.665-2.924V12.73h-2.224v-2.46h5.045v9.141c0 .731.134 1.296.366 1.728.398.765 1.062 1.097 2.091 1.097 1.562 0 3.022-.964 4.283-2.16V12.73h-2.29v-2.46h5.145v11.933h2.224v2.393h-4.98v-2.493c-1.36 1.462-3.153 2.759-5.211 2.759-1.826 0-3.054-.731-3.785-1.895" fill="#F1655D"/><mask id="b" fill="#fff"><use xlink:href="#a"/></mask><path fill="#F1655D" mask="url(#b)" d="M116.285 22.204h2.325V2.726h-2.325V.266h5.18v21.938h2.29v2.393h-7.47z"/></g><path d="M0 0h124v31H0z"/></g></svg>